<svg xmlns="http://www.w3.org/2000/svg" version="1.1" xmlns:xlink="http://www.w3.org/1999/xlink" xmlns:svgjs="http://svgjs.dev/svgjs" width="128" height="128" viewBox="0 0 128 128"><g transform="matrix(0.8046875,0,0,0.8046875,12.476547901323741,2.2428301411290334)"><svg viewBox="0 0 129 155" data-background-color="#ffffff" preserveAspectRatio="xMidYMid meet" height="153" width="128" xmlns="http://www.w3.org/2000/svg" xmlns:xlink="http://www.w3.org/1999/xlink"><g id="tight-bounds" transform="matrix(1,0,0,1,0.029372045914925593,0.25)"><svg viewBox="0 0 128.94125590817015 154.5" height="154.5" width="128.94125590817015"><g><svg viewBox="0 0 128.94125590817015 154.5" height="154.5" width="128.94125590817015"><g><svg viewBox="0 0 128.94125590817015 154.5" height="154.5" width="128.94125590817015"><g id="textblocktransform"><svg viewBox="0 0 128.94125590817015 154.5" height="154.5" width="128.94125590817015" id="textblock"><g><svg viewBox="0 0 128.94125590817015 154.5" height="154.5" width="128.94125590817015"><g transform="matrix(1,0,0,1,0,0)"><svg width="128.94125590817015" viewBox="-0.22 -34.81 30.18 36.150000000000006" height="154.5" data-palette-color="#000000"><path d="M28.96-34.81L28.96-34.81Q29.96-34.81 29.96-33.76L29.96-33.76Q29.96-33.23 29.63-32.53 29.3-31.84 29.1-31.4L29.1-31.4 15.84 1.34-0.22-34.55 13.11-34.55 20.87-16.28 26.32-29.91Q27.2-32.1 27.47-33.08 27.73-34.06 28.05-34.44 28.37-34.81 28.96-34.81Z" opacity="1" transform="matrix(1,0,0,1,0,0)" fill="#ffffff" class="wordmark-text-0" data-fill-palette-color="primary" id="text-0"></path></svg></g></svg></g></svg></g></svg></g></svg></g><defs></defs></svg><rect width="128.94125590817015" height="154.5" fill="none" stroke="none" visibility="hidden"></rect></g></svg></g></svg>