<svg xmlns="http://www.w3.org/2000/svg" version="1.1" xmlns:xlink="http://www.w3.org/1999/xlink" xmlns:svgjs="http://svgjs.dev/svgjs" width="2000" height="398" viewBox="0 0 2000 398"><g transform="matrix(1,0,0,1,-1.2121212121212466,1.2324358339935486)"><svg viewBox="0 0 396 79" data-background-color="#ffffff" preserveAspectRatio="xMidYMid meet" height="398" width="2000" xmlns="http://www.w3.org/2000/svg" xmlns:xlink="http://www.w3.org/1999/xlink"><g id="tight-bounds" transform="matrix(1,0,0,1,0.2400000000000091,-0.24462922333037795)"><svg viewBox="0 0 395.52 79.48925844666078" height="79.48925844666078" width="395.52"><g><svg viewBox="0 0 395.52 79.48925844666078" height="79.48925844666078" width="395.52"><g><svg viewBox="0 0 395.52 79.48925844666078" height="79.48925844666078" width="395.52"><g id="textblocktransform"><svg viewBox="0 0 395.52 79.48925844666078" height="79.48925844666078" width="395.52" id="textblock"><g><rect width="106.79039999999999" height="5.04969917132242" y="71.82690163695796" fill="#ffffff" data-fill-palette-color="tertiary"></rect><rect width="106.79039999999999" height="5.04969917132242" y="71.82690163695796" x="288.7296" fill="#ffffff" data-fill-palette-color="tertiary"></rect></g><g><svg viewBox="0 0 395.52 55.99513622024662" height="55.99513622024662" width="395.52"><g transform="matrix(1,0,0,1,0,0)"><svg width="395.52" viewBox="-0.22 -34.81 255.38 36.150000000000006" height="55.99513622024662" data-palette-color="#000000"><path d="M28.96-34.81L28.96-34.81Q29.96-34.81 29.96-33.76L29.96-33.76Q29.96-33.23 29.63-32.53 29.3-31.84 29.1-31.4L29.1-31.4 15.84 1.34-0.22-34.55 13.11-34.55 20.87-16.28 26.32-29.91Q27.2-32.1 27.47-33.08 27.73-34.06 28.05-34.44 28.37-34.81 28.96-34.81ZM57.64-5.93L57.64-5.93Q58.59-5.93 58.59-5.05L58.59-5.05Q58.59-4.39 57.74-3.49L57.74-3.49Q53.88 0.46 47.17 0.46L47.17 0.46Q41.14 0.46 37.01-3.17L37.01-3.17Q32.74-6.96 32.74-12.74L32.74-12.74Q32.74-18.65 36.59-22.46L36.59-22.46Q40.67-26.51 47.43-26.51L47.43-26.51Q52.85-26.51 56.54-23.22L56.54-23.22Q60.52-19.68 60.52-13.92L60.52-13.92Q60.52-13.09 60.47-12.16L60.47-12.16 44.36-12.16 44.36-1.68Q46.02-1.34 48.09-1.34L48.09-1.34Q52.49-1.34 55.59-4.25L55.59-4.25Q56.22-4.88 56.49-5.25L56.49-5.25Q57.05-5.93 57.64-5.93ZM51.12-13.94L51.12-24.27Q49.53-24.73 47.53-24.73 45.53-24.73 44.36-24.46L44.36-24.46 44.36-13.94 51.12-13.94ZM84.79 0L84.79-23.41Q84.17-23.8 83.47-23.8 82.76-23.8 82-23.47 81.25-23.14 80.41-22.56L80.41-22.56Q78.68-21.31 77.22-19.24L77.22-19.24 77.22 0 66.72 0 66.72-26.07 77.22-26.07 77.22-21.9Q81.39-26.51 86.66-26.51L86.66-26.51Q95.28-26.51 95.28-18.16L95.28-18.16 95.28 0 84.79 0ZM121.75 0L121.75-1.34Q118.69 0.46 115.29 0.46 111.88 0.46 109.31-0.55 106.73-1.56 104.9-3.37L104.9-3.37Q101.09-7.15 101.09-13.21L101.09-13.21Q101.09-18.82 104.85-22.56L104.85-22.56Q108.85-26.51 115.3-26.51L115.3-26.51Q118.72-26.51 121.75-25.02L121.75-25.02 121.75-34.55 131.8-34.55 131.8 0 121.75 0ZM114.81-24.73L114.81-24.73Q114.06-24.73 113.37-24.63L113.37-24.63 113.37-1.49Q114.25-1.34 115.28-1.34L115.28-1.34Q118.67-1.34 121.75-3.49L121.75-3.49 121.75-22.85Q118.45-24.73 114.81-24.73ZM156.12 0L156.12-1.61Q152.99 0.46 149.18 0.46L149.18 0.46Q144.13 0.46 141.08-2.08L141.08-2.08Q137.91-4.69 137.91-9.33L137.91-9.33Q137.91-13.43 141.05-16.06L141.05-16.06Q144.28-18.73 149.53-18.73L149.53-18.73Q153.04-18.73 156.12-17.38L156.12-17.38 156.12-24.1Q153.9-24.73 152.2-24.73 150.5-24.73 149.33-24.58 148.16-24.44 147.11-24.15L147.11-24.15Q144.84-23.51 143.67-22.44L143.67-22.44Q142.98-21.8 142.42-21.8 141.86-21.8 141.57-22.08 141.27-22.36 141.27-22.71 141.27-23.05 141.4-23.33 141.52-23.61 141.86-23.9L141.86-23.9Q142.59-24.54 144.3-25.17L144.3-25.17Q147.84-26.51 151.41-26.51L151.41-26.51Q162.25-26.51 165.25-21.34L165.25-21.34Q166.57-19.04 166.57-15.31L166.57-15.31 166.57 0 156.12 0ZM156.12-3.71L156.12-15.48Q153.04-16.97 149.99-16.97L149.99-16.97Q149.5-16.97 149.06-16.89L149.06-16.89 149.06-1.37Q149.18-1.34 149.33-1.34 149.48-1.34 149.62-1.34L149.62-1.34Q152.97-1.34 156.12-3.71L156.12-3.71ZM190.81 0.46L190.81 0.46Q187.41 0.46 184.24-1.07L184.24-1.07 184.24 0 174.21 0 174.21-34.55 184.24-34.55 184.24-24.83Q187.34-26.51 190.73-26.51 194.13-26.51 196.69-25.51 199.26-24.51 201.09-22.75L201.09-22.75Q204.87-19.04 204.87-13.26L204.87-13.26Q204.87-7.42 201.13-3.56L201.13-3.56Q197.28 0.46 190.81 0.46ZM190.73-24.73L190.73-24.73Q187.12-24.73 184.24-22.73L184.24-22.73 184.24-3.15Q187.44-1.34 191.42-1.34L191.42-1.34 192.05-1.34Q192.35-1.34 192.61-1.39L192.61-1.39 192.61-24.58Q191.69-24.73 190.73-24.73ZM211.14 0L211.14-34.55 221.64-34.55 221.64 0 211.14 0ZM252.28-5.93L252.28-5.93Q253.23-5.93 253.23-5.05L253.23-5.05Q253.23-4.39 252.38-3.49L252.38-3.49Q248.52 0.46 241.8 0.46L241.8 0.46Q235.77 0.46 231.65-3.17L231.65-3.17Q227.38-6.96 227.38-12.74L227.38-12.74Q227.38-18.65 231.23-22.46L231.23-22.46Q235.31-26.51 242.07-26.51L242.07-26.51Q247.49-26.51 251.18-23.22L251.18-23.22Q255.16-19.68 255.16-13.92L255.16-13.92Q255.16-13.09 255.11-12.16L255.11-12.16 239-12.16 239-1.68Q240.66-1.34 242.73-1.34L242.73-1.34Q247.13-1.34 250.23-4.25L250.23-4.25Q250.86-4.88 251.13-5.25L251.13-5.25Q251.69-5.93 252.28-5.93ZM245.76-13.94L245.76-24.27Q244.17-24.73 242.17-24.73 240.17-24.73 239-24.46L239-24.46 239-13.94 245.76-13.94Z" opacity="1" transform="matrix(1,0,0,1,0,0)" fill="#ffffff" class="wordmark-text-0" data-fill-palette-color="primary" id="text-0"></path></svg></g></svg></g><g transform="matrix(1,0,0,1,106.79039999999999,69.21424399857756)"><svg viewBox="0 0 181.9392 10.27501444808322" height="10.27501444808322" width="181.9392"><g transform="matrix(1,0,0,1,8,0)"><svg width="165.9392" viewBox="1.4333333333349998 -37 605.556666666665 37.5" height="10.27501444808322" data-palette-color="#000000"><path d="M15.5-31.35L16.4-31.15 4.25-0.95Q4.05-0.45 3.7-0.2 3.35 0.05 2.9 0.05L2.9 0.05Q2.2 0.05 1.85-0.33 1.5-0.7 1.45-1.25L1.45-1.25Q1.4-1.5 1.5-1.85L1.5-1.85 14.7-34.15Q14.95-34.7 15.33-34.93 15.7-35.15 16.2-35.15L16.2-35.15Q16.7-35.15 17.07-34.88 17.45-34.6 17.65-34.15L17.65-34.15 30.8-2Q30.9-1.7 30.9-1.4L30.9-1.4Q30.9-0.7 30.45-0.33 30 0.05 29.4 0.05L29.4 0.05Q28.9 0.05 28.53-0.23 28.15-0.5 27.95-0.95L27.95-0.95 15.5-31.35ZM24.5-10.1L7.15-10.1 8.4-13.05 23.9-13.05 24.5-10.1ZM48.35-26.15L48.35-26.15Q51.65-26.15 53.62-24.83 55.6-23.5 56.47-21.23 57.35-18.95 57.35-16.2L57.35-16.2 57.35-1.5Q57.35-0.9 56.9-0.45 56.45 0 55.85 0L55.85 0Q55.15 0 54.75-0.45 54.35-0.9 54.35-1.5L54.35-1.5 54.35-16.05Q54.35-18.05 53.7-19.7 53.05-21.35 51.57-22.35 50.1-23.35 47.7-23.35L47.7-23.35Q45.55-23.35 43.62-22.35 41.7-21.35 40.5-19.7 39.3-18.05 39.3-16.05L39.3-16.05 39.3-1.5Q39.3-0.9 38.85-0.45 38.4 0 37.8 0L37.8 0Q37.1 0 36.7-0.45 36.3-0.9 36.3-1.5L36.3-1.5 36.3-23.9Q36.3-24.5 36.72-24.95 37.15-25.4 37.8-25.4L37.8-25.4Q38.45-25.4 38.87-24.95 39.3-24.5 39.3-23.9L39.3-23.9 39.3-19.7 38.15-17.9Q38.25-19.5 39.17-20.98 40.1-22.45 41.55-23.63 43-24.8 44.77-25.48 46.55-26.15 48.35-26.15ZM81.09-35L81.09-35 99.44-35Q100.04-35 100.49-34.58 100.94-34.15 100.94-33.5L100.94-33.5Q100.94-32.85 100.49-32.45 100.04-32.05 99.44-32.05L99.44-32.05 82.24-32.05 82.74-32.9 82.74-18.85 82.19-19.5 97.19-19.5Q97.79-19.5 98.24-19.05 98.69-18.6 98.69-18L98.69-18Q98.69-17.35 98.24-16.95 97.79-16.55 97.19-16.55L97.19-16.55 82.29-16.55 82.74-17.05 82.74-2.65 82.49-2.95 99.44-2.95Q100.04-2.95 100.49-2.5 100.94-2.05 100.94-1.45L100.94-1.45Q100.94-0.8 100.49-0.4 100.04 0 99.44 0L99.44 0 81.09 0Q80.49 0 80.04-0.45 79.59-0.9 79.59-1.5L79.59-1.5 79.59-33.5Q79.59-34.1 80.04-34.55 80.49-35 81.09-35ZM110.54-35.5L110.54-1.5Q110.54-0.9 110.09-0.45 109.64 0 109.04 0L109.04 0Q108.39 0 107.97-0.45 107.54-0.9 107.54-1.5L107.54-1.5 107.54-35.5Q107.54-36.1 107.99-36.55 108.44-37 109.04-37L109.04-37Q109.69-37 110.12-36.55 110.54-36.1 110.54-35.5L110.54-35.5ZM129.59 0.5L129.59 0.5Q125.74 0.5 122.79-1.15 119.84-2.8 118.19-5.75 116.54-8.7 116.54-12.65L116.54-12.65Q116.54-16.9 118.21-19.9 119.89-22.9 122.56-24.53 125.24-26.15 128.24-26.15L128.24-26.15Q130.44-26.15 132.51-25.38 134.59-24.6 136.19-23.08 137.79-21.55 138.79-19.35 139.79-17.15 139.84-14.25L139.84-14.25Q139.84-13.65 139.39-13.23 138.94-12.8 138.34-12.8L138.34-12.8 118.29-12.8 117.69-15.5 137.39-15.5 136.74-14.9 136.74-15.9Q136.49-18.25 135.19-19.9 133.89-21.55 132.06-22.4 130.24-23.25 128.24-23.25L128.24-23.25Q126.74-23.25 125.16-22.65 123.59-22.05 122.31-20.78 121.04-19.5 120.24-17.53 119.44-15.55 119.44-12.85L119.44-12.85Q119.44-9.9 120.64-7.5 121.84-5.1 124.09-3.7 126.34-2.3 129.54-2.3L129.54-2.3Q131.24-2.3 132.64-2.8 134.04-3.3 135.11-4.13 136.19-4.95 136.89-5.85L136.89-5.85Q137.44-6.3 137.94-6.3L137.94-6.3Q138.49-6.3 138.86-5.9 139.24-5.5 139.24-5L139.24-5Q139.24-4.4 138.74-3.95L138.74-3.95Q137.24-2.15 134.84-0.83 132.44 0.5 129.59 0.5ZM157.09-26.15L157.09-26.15Q159.49-26.15 161.49-25.63 163.49-25.1 164.71-24.2 165.94-23.3 165.94-22.25L165.94-22.25Q165.94-21.75 165.56-21.28 165.19-20.8 164.64-20.8L164.64-20.8Q163.99-20.8 163.61-21.1 163.24-21.4 162.89-21.8 162.54-22.2 161.84-22.55L161.84-22.55Q161.19-22.85 159.96-23.1 158.74-23.35 157.24-23.35L157.24-23.35Q154.44-23.35 152.19-21.95 149.94-20.55 148.64-18.18 147.34-15.8 147.34-12.85L147.34-12.85Q147.34-9.85 148.56-7.45 149.79-5.05 152.01-3.68 154.24-2.3 157.14-2.3L157.14-2.3Q159.14-2.3 160.26-2.65 161.39-3 162.14-3.45L162.14-3.45Q163.14-4 163.56-4.53 163.99-5.05 164.69-5.05L164.69-5.05Q165.29-5.05 165.64-4.67 165.99-4.3 165.99-3.7L165.99-3.7Q165.99-2.9 164.81-1.93 163.64-0.95 161.59-0.23 159.54 0.5 156.84 0.5L156.84 0.5Q153.14 0.5 150.31-1.25 147.49-3 145.91-6.03 144.34-9.05 144.34-12.85L144.34-12.85Q144.34-16.5 145.94-19.5 147.54-22.5 150.39-24.33 153.24-26.15 157.09-26.15ZM170.08-25.45L170.08-25.45 181.73-25.45Q182.33-25.45 182.73-25.03 183.13-24.6 183.13-24L183.13-24Q183.13-23.45 182.73-23.05 182.33-22.65 181.73-22.65L181.73-22.65 170.08-22.65Q169.48-22.65 169.06-23.08 168.63-23.5 168.63-24.05L168.63-24.05Q168.63-24.65 169.06-25.05 169.48-25.45 170.08-25.45ZM175.23-32.5L175.23-32.5Q175.88-32.5 176.31-32.05 176.73-31.6 176.73-31L176.73-31 176.73-5.9Q176.73-4.5 177.11-3.8 177.48-3.1 178.08-2.88 178.68-2.65 179.28-2.65L179.28-2.65Q179.68-2.65 180.01-2.78 180.33-2.9 180.73-2.9L180.73-2.9Q181.18-2.9 181.51-2.55 181.83-2.2 181.83-1.65L181.83-1.65Q181.83-0.95 181.03-0.48 180.23 0 179.13 0L179.13 0Q178.68 0 177.78-0.08 176.88-0.15 175.93-0.63 174.98-1.1 174.36-2.3 173.73-3.5 173.73-5.75L173.73-5.75 173.73-31Q173.73-31.6 174.16-32.05 174.58-32.5 175.23-32.5ZM190.18 0L190.18 0Q189.48 0 189.08-0.45 188.68-0.9 188.68-1.5L188.68-1.5 188.68-23.9Q188.68-24.5 189.11-24.95 189.53-25.4 190.18-25.4L190.18-25.4Q190.83-25.4 191.26-24.95 191.68-24.5 191.68-23.9L191.68-23.9 191.68-16.4 190.93-16.25Q191.08-18 191.81-19.73 192.53-21.45 193.78-22.9 195.03-24.35 196.76-25.25 198.48-26.15 200.63-26.15L200.63-26.15Q201.53-26.15 202.38-25.78 203.23-25.4 203.23-24.55L203.23-24.55Q203.23-23.8 202.83-23.4 202.43-23 201.88-23L201.88-23Q201.43-23 200.91-23.25 200.38-23.5 199.53-23.5L199.53-23.5Q198.13-23.5 196.73-22.68 195.33-21.85 194.18-20.45 193.03-19.05 192.36-17.32 191.68-15.6 191.68-13.85L191.68-13.85 191.68-1.5Q191.68-0.9 191.23-0.45 190.78 0 190.18 0ZM230.43-12.8L230.43-12.8Q230.43-9 228.75-5.98 227.08-2.95 224.23-1.23 221.38 0.5 217.78 0.5L217.78 0.5Q214.23 0.5 211.35-1.23 208.48-2.95 206.8-5.98 205.13-9 205.13-12.8L205.13-12.8Q205.13-16.65 206.8-19.65 208.48-22.65 211.35-24.4 214.23-26.15 217.78-26.15L217.78-26.15Q221.38-26.15 224.23-24.4 227.08-22.65 228.75-19.65 230.43-16.65 230.43-12.8ZM227.43-12.8L227.43-12.8Q227.43-15.85 226.18-18.23 224.93-20.6 222.75-21.98 220.58-23.35 217.78-23.35L217.78-23.35Q215.03-23.35 212.85-21.98 210.68-20.6 209.4-18.23 208.13-15.85 208.13-12.8L208.13-12.8Q208.13-9.75 209.4-7.4 210.68-5.05 212.85-3.68 215.03-2.3 217.78-2.3L217.78-2.3Q220.58-2.3 222.75-3.68 224.93-5.05 226.18-7.4 227.43-9.75 227.43-12.8ZM248.63-26.15L248.63-26.15Q251.93-26.15 253.9-24.83 255.88-23.5 256.75-21.23 257.63-18.95 257.63-16.2L257.63-16.2 257.63-1.5Q257.63-0.9 257.18-0.45 256.73 0 256.13 0L256.13 0Q255.43 0 255.03-0.45 254.63-0.9 254.63-1.5L254.63-1.5 254.63-16.05Q254.63-18.05 253.98-19.7 253.33-21.35 251.85-22.35 250.38-23.35 247.98-23.35L247.98-23.35Q245.83-23.35 243.9-22.35 241.98-21.35 240.78-19.7 239.58-18.05 239.58-16.05L239.58-16.05 239.58-1.5Q239.58-0.9 239.13-0.45 238.68 0 238.08 0L238.08 0Q237.38 0 236.98-0.45 236.58-0.9 236.58-1.5L236.58-1.5 236.58-23.9Q236.58-24.5 237-24.95 237.43-25.4 238.08-25.4L238.08-25.4Q238.73-25.4 239.15-24.95 239.58-24.5 239.58-23.9L239.58-23.9 239.58-19.7 238.43-17.9Q238.53-19.5 239.45-20.98 240.38-22.45 241.83-23.63 243.28-24.8 245.05-25.48 246.83-26.15 248.63-26.15ZM268.37-24.5L268.37-1.5Q268.37-0.9 267.92-0.45 267.47 0 266.87 0L266.87 0Q266.22 0 265.8-0.45 265.37-0.9 265.37-1.5L265.37-1.5 265.37-24.5Q265.37-25.1 265.8-25.55 266.22-26 266.87-26L266.87-26Q267.52-26 267.95-25.55 268.37-25.1 268.37-24.5L268.37-24.5ZM266.87-29.35L266.87-29.35Q265.82-29.35 265.3-29.83 264.77-30.3 264.77-31.2L264.77-31.2 264.77-31.7Q264.77-32.6 265.35-33.08 265.92-33.55 266.92-33.55L266.92-33.55Q267.87-33.55 268.4-33.08 268.92-32.6 268.92-31.7L268.92-31.7 268.92-31.2Q268.92-30.3 268.4-29.83 267.87-29.35 266.87-29.35ZM287.22-26.15L287.22-26.15Q289.62-26.15 291.62-25.63 293.62-25.1 294.85-24.2 296.07-23.3 296.07-22.25L296.07-22.25Q296.07-21.75 295.7-21.28 295.32-20.8 294.77-20.8L294.77-20.8Q294.12-20.8 293.75-21.1 293.37-21.4 293.02-21.8 292.67-22.2 291.97-22.55L291.97-22.55Q291.32-22.85 290.1-23.1 288.87-23.35 287.37-23.35L287.37-23.35Q284.57-23.35 282.32-21.95 280.07-20.55 278.77-18.18 277.47-15.8 277.47-12.85L277.47-12.85Q277.47-9.85 278.7-7.45 279.92-5.05 282.15-3.68 284.37-2.3 287.27-2.3L287.27-2.3Q289.27-2.3 290.4-2.65 291.52-3 292.27-3.45L292.27-3.45Q293.27-4 293.7-4.53 294.12-5.05 294.82-5.05L294.82-5.05Q295.42-5.05 295.77-4.67 296.12-4.3 296.12-3.7L296.12-3.7Q296.12-2.9 294.95-1.93 293.77-0.95 291.72-0.23 289.67 0.5 286.97 0.5L286.97 0.5Q283.27 0.5 280.45-1.25 277.62-3 276.05-6.03 274.47-9.05 274.47-12.85L274.47-12.85Q274.47-16.5 276.07-19.5 277.67-22.5 280.52-24.33 283.37-26.15 287.22-26.15ZM300.42-4.05L300.42-4.05Q300.02-4.65 300.04-5.23 300.07-5.8 300.67-6.15L300.67-6.15Q301.07-6.5 301.59-6.45 302.12-6.4 302.57-5.95L302.57-5.95Q303.92-4.2 305.84-3.13 307.77-2.05 310.42-2.05L310.42-2.05Q311.82-2.05 313.19-2.53 314.57-3 315.47-3.98 316.37-4.95 316.37-6.45L316.37-6.45Q316.37-8 315.47-8.95 314.57-9.9 313.14-10.45 311.72-11 310.12-11.4L310.12-11.4Q308.42-11.85 306.82-12.43 305.22-13 303.99-13.88 302.77-14.75 302.02-16 301.27-17.25 301.27-19.05L301.27-19.05Q301.27-21.15 302.42-22.75 303.57-24.35 305.54-25.25 307.52-26.15 310.02-26.15L310.02-26.15Q311.27-26.15 312.72-25.83 314.17-25.5 315.57-24.75 316.97-24 318.07-22.7L318.07-22.7Q318.52-22.25 318.52-21.68 318.52-21.1 318.02-20.65L318.02-20.65Q317.62-20.35 317.09-20.35 316.57-20.35 316.22-20.75L316.22-20.75Q315.02-22.1 313.37-22.8 311.72-23.5 309.82-23.5L309.82-23.5Q308.37-23.5 307.09-23.03 305.82-22.55 304.97-21.6 304.12-20.65 304.12-19.1L304.12-19.1Q304.22-17.65 305.14-16.75 306.07-15.85 307.59-15.25 309.12-14.65 311.02-14.15L311.02-14.15Q312.62-13.75 314.09-13.2 315.57-12.65 316.69-11.83 317.82-11 318.49-9.75 319.17-8.5 319.17-6.6L319.17-6.6Q319.17-4.4 317.94-2.8 316.72-1.2 314.67-0.35 312.62 0.5 310.12 0.5L310.12 0.5Q307.42 0.5 304.89-0.55 302.37-1.6 300.42-4.05ZM341.21-35L341.21-35 359.56-35Q360.16-35 360.61-34.58 361.06-34.15 361.06-33.5L361.06-33.5Q361.06-32.85 360.61-32.45 360.16-32.05 359.56-32.05L359.56-32.05 342.36-32.05 342.86-32.9 342.86-18.85 342.31-19.5 357.31-19.5Q357.91-19.5 358.36-19.05 358.81-18.6 358.81-18L358.81-18Q358.81-17.35 358.36-16.95 357.91-16.55 357.31-16.55L357.31-16.55 342.41-16.55 342.86-17.05 342.86-2.65 342.61-2.95 359.56-2.95Q360.16-2.95 360.61-2.5 361.06-2.05 361.06-1.45L361.06-1.45Q361.06-0.8 360.61-0.4 360.16 0 359.56 0L359.56 0 341.21 0Q340.61 0 340.16-0.45 339.71-0.9 339.71-1.5L339.71-1.5 339.71-33.5Q339.71-34.1 340.16-34.55 340.61-35 341.21-35ZM378.16-26.15L378.16-26.15Q380.56-26.15 382.56-25.63 384.56-25.1 385.78-24.2 387.01-23.3 387.01-22.25L387.01-22.25Q387.01-21.75 386.63-21.28 386.26-20.8 385.71-20.8L385.71-20.8Q385.06-20.8 384.68-21.1 384.31-21.4 383.96-21.8 383.61-22.2 382.91-22.55L382.91-22.55Q382.26-22.85 381.03-23.1 379.81-23.35 378.31-23.35L378.31-23.35Q375.51-23.35 373.26-21.95 371.01-20.55 369.71-18.18 368.41-15.8 368.41-12.85L368.41-12.85Q368.41-9.85 369.63-7.45 370.86-5.05 373.08-3.68 375.31-2.3 378.21-2.3L378.21-2.3Q380.21-2.3 381.33-2.65 382.46-3 383.21-3.45L383.21-3.45Q384.21-4 384.63-4.53 385.06-5.05 385.76-5.05L385.76-5.05Q386.36-5.05 386.71-4.67 387.06-4.3 387.06-3.7L387.06-3.7Q387.06-2.9 385.88-1.93 384.71-0.95 382.66-0.23 380.61 0.5 377.91 0.5L377.91 0.5Q374.21 0.5 371.38-1.25 368.56-3 366.98-6.03 365.41-9.05 365.41-12.85L365.41-12.85Q365.41-16.5 367.01-19.5 368.61-22.5 371.46-24.33 374.31-26.15 378.16-26.15ZM416.41-12.8L416.41-12.8Q416.41-9 414.73-5.98 413.06-2.95 410.21-1.23 407.36 0.5 403.76 0.5L403.76 0.5Q400.21 0.5 397.33-1.23 394.46-2.95 392.78-5.98 391.11-9 391.11-12.8L391.11-12.8Q391.11-16.65 392.78-19.65 394.46-22.65 397.33-24.4 400.21-26.15 403.76-26.15L403.76-26.15Q407.36-26.15 410.21-24.4 413.06-22.65 414.73-19.65 416.41-16.65 416.41-12.8ZM413.41-12.8L413.41-12.8Q413.41-15.85 412.16-18.23 410.91-20.6 408.73-21.98 406.56-23.35 403.76-23.35L403.76-23.35Q401.01-23.35 398.83-21.98 396.66-20.6 395.38-18.23 394.11-15.85 394.11-12.8L394.11-12.8Q394.11-9.75 395.38-7.4 396.66-5.05 398.83-3.68 401.01-2.3 403.76-2.3L403.76-2.3Q406.56-2.3 408.73-3.68 410.91-5.05 412.16-7.4 413.41-9.75 413.41-12.8ZM434.05-25.75L434.05-25.75Q437.15-25.75 439.35-24.13 441.55-22.5 442.35-19.3L442.35-19.3 441.65-19.1 441.95-20Q442.6-21.5 444.13-22.83 445.65-24.15 447.6-24.95 449.55-25.75 451.55-25.75L451.55-25.75Q454.7-25.75 456.63-24.4 458.55-23.05 459.43-20.78 460.3-18.5 460.3-15.65L460.3-15.65 460.3-1.5Q460.3-0.9 459.88-0.45 459.45 0 458.8 0L458.8 0Q458.15 0 457.73-0.45 457.3-0.9 457.3-1.5L457.3-1.5 457.3-15.5Q457.3-17.55 456.65-19.25 456-20.95 454.6-21.95 453.2-22.95 450.85-22.95L450.85-22.95Q448.8-22.95 446.93-21.95 445.05-20.95 443.88-19.25 442.7-17.55 442.7-15.5L442.7-15.5 442.7-1.5Q442.7-0.9 442.28-0.45 441.85 0 441.2 0L441.2 0Q440.55 0 440.13-0.45 439.7-0.9 439.7-1.5L439.7-1.5 439.7-15.65Q439.7-17.7 439.1-19.35 438.5-21 437.15-21.98 435.8-22.95 433.5-22.95L433.5-22.95Q431.45-22.95 429.63-21.98 427.8-21 426.68-19.35 425.55-17.7 425.55-15.65L425.55-15.65 425.55-1.5Q425.55-0.9 425.1-0.45 424.65 0 424.05 0L424.05 0Q423.35 0 422.95-0.45 422.55-0.9 422.55-1.5L422.55-1.5 422.55-23.9Q422.55-24.5 422.98-24.95 423.4-25.4 424.05-25.4L424.05-25.4Q424.7-25.4 425.13-24.95 425.55-24.5 425.55-23.9L425.55-23.9 425.55-19.25 424.2-17.4Q424.35-18.9 425.18-20.4 426-21.9 427.35-23.1 428.7-24.3 430.43-25.03 432.15-25.75 434.05-25.75ZM479.65-25.75L479.65-25.75Q482.75-25.75 484.95-24.13 487.15-22.5 487.95-19.3L487.95-19.3 487.25-19.1 487.55-20Q488.2-21.5 489.73-22.83 491.25-24.15 493.2-24.95 495.15-25.75 497.15-25.75L497.15-25.75Q500.3-25.75 502.23-24.4 504.15-23.05 505.03-20.78 505.9-18.5 505.9-15.65L505.9-15.65 505.9-1.5Q505.9-0.9 505.48-0.45 505.05 0 504.4 0L504.4 0Q503.75 0 503.33-0.45 502.9-0.9 502.9-1.5L502.9-1.5 502.9-15.5Q502.9-17.55 502.25-19.25 501.6-20.95 500.2-21.95 498.8-22.95 496.45-22.95L496.45-22.95Q494.4-22.95 492.53-21.95 490.65-20.95 489.48-19.25 488.3-17.55 488.3-15.5L488.3-15.5 488.3-1.5Q488.3-0.9 487.88-0.45 487.45 0 486.8 0L486.8 0Q486.15 0 485.73-0.45 485.3-0.9 485.3-1.5L485.3-1.5 485.3-15.65Q485.3-17.7 484.7-19.35 484.1-21 482.75-21.98 481.4-22.95 479.1-22.95L479.1-22.95Q477.05-22.95 475.23-21.98 473.4-21 472.28-19.35 471.15-17.7 471.15-15.65L471.15-15.65 471.15-1.5Q471.15-0.9 470.7-0.45 470.25 0 469.65 0L469.65 0Q468.95 0 468.55-0.45 468.15-0.9 468.15-1.5L468.15-1.5 468.15-23.9Q468.15-24.5 468.58-24.95 469-25.4 469.65-25.4L469.65-25.4Q470.3-25.4 470.73-24.95 471.15-24.5 471.15-23.9L471.15-23.9 471.15-19.25 469.8-17.4Q469.95-18.9 470.78-20.4 471.6-21.9 472.95-23.1 474.3-24.3 476.03-25.03 477.75-25.75 479.65-25.75ZM525.1 0.5L525.1 0.5Q521.25 0.5 518.3-1.15 515.35-2.8 513.7-5.75 512.05-8.7 512.05-12.65L512.05-12.65Q512.05-16.9 513.73-19.9 515.4-22.9 518.08-24.53 520.75-26.15 523.75-26.15L523.75-26.15Q525.95-26.15 528.02-25.38 530.1-24.6 531.7-23.08 533.3-21.55 534.3-19.35 535.3-17.15 535.35-14.25L535.35-14.25Q535.35-13.65 534.9-13.23 534.45-12.8 533.85-12.8L533.85-12.8 513.8-12.8 513.2-15.5 532.9-15.5 532.25-14.9 532.25-15.9Q532-18.25 530.7-19.9 529.4-21.55 527.58-22.4 525.75-23.25 523.75-23.25L523.75-23.25Q522.25-23.25 520.67-22.65 519.1-22.05 517.83-20.78 516.55-19.5 515.75-17.53 514.95-15.55 514.95-12.85L514.95-12.85Q514.95-9.9 516.15-7.5 517.35-5.1 519.6-3.7 521.85-2.3 525.05-2.3L525.05-2.3Q526.75-2.3 528.15-2.8 529.55-3.3 530.63-4.13 531.7-4.95 532.4-5.85L532.4-5.85Q532.95-6.3 533.45-6.3L533.45-6.3Q534-6.3 534.38-5.9 534.75-5.5 534.75-5L534.75-5Q534.75-4.4 534.25-3.95L534.25-3.95Q532.75-2.15 530.35-0.83 527.95 0.5 525.1 0.5ZM543.05 0L543.05 0Q542.35 0 541.95-0.45 541.55-0.9 541.55-1.5L541.55-1.5 541.55-23.9Q541.55-24.5 541.97-24.95 542.4-25.4 543.05-25.4L543.05-25.4Q543.7-25.4 544.12-24.95 544.55-24.5 544.55-23.9L544.55-23.9 544.55-16.4 543.8-16.25Q543.95-18 544.67-19.73 545.4-21.45 546.65-22.9 547.9-24.35 549.62-25.25 551.35-26.15 553.5-26.15L553.5-26.15Q554.4-26.15 555.25-25.78 556.1-25.4 556.1-24.55L556.1-24.55Q556.1-23.8 555.7-23.4 555.3-23 554.75-23L554.75-23Q554.3-23 553.77-23.25 553.25-23.5 552.4-23.5L552.4-23.5Q551-23.5 549.6-22.68 548.2-21.85 547.05-20.45 545.9-19.05 545.22-17.32 544.55-15.6 544.55-13.85L544.55-13.85 544.55-1.5Q544.55-0.9 544.1-0.45 543.65 0 543.05 0ZM570.74-26.15L570.74-26.15Q573.14-26.15 575.14-25.63 577.14-25.1 578.37-24.2 579.59-23.3 579.59-22.25L579.59-22.25Q579.59-21.75 579.22-21.28 578.84-20.8 578.29-20.8L578.29-20.8Q577.64-20.8 577.27-21.1 576.89-21.4 576.54-21.8 576.19-22.2 575.49-22.55L575.49-22.55Q574.84-22.85 573.62-23.1 572.39-23.35 570.89-23.35L570.89-23.35Q568.09-23.35 565.84-21.95 563.59-20.55 562.29-18.18 560.99-15.8 560.99-12.85L560.99-12.85Q560.99-9.85 562.22-7.45 563.44-5.05 565.67-3.68 567.89-2.3 570.79-2.3L570.79-2.3Q572.79-2.3 573.92-2.65 575.04-3 575.79-3.45L575.79-3.45Q576.79-4 577.22-4.53 577.64-5.05 578.34-5.05L578.34-5.05Q578.94-5.05 579.29-4.67 579.64-4.3 579.64-3.7L579.64-3.7Q579.64-2.9 578.47-1.93 577.29-0.95 575.24-0.23 573.19 0.5 570.49 0.5L570.49 0.5Q566.79 0.5 563.97-1.25 561.14-3 559.57-6.03 557.99-9.05 557.99-12.85L557.99-12.85Q557.99-16.5 559.59-19.5 561.19-22.5 564.04-24.33 566.89-26.15 570.74-26.15ZM596.74 0.5L596.74 0.5Q592.89 0.5 589.94-1.15 586.99-2.8 585.34-5.75 583.69-8.7 583.69-12.65L583.69-12.65Q583.69-16.9 585.37-19.9 587.04-22.9 589.72-24.53 592.39-26.15 595.39-26.15L595.39-26.15Q597.59-26.15 599.67-25.38 601.74-24.6 603.34-23.08 604.94-21.55 605.94-19.35 606.94-17.15 606.99-14.25L606.99-14.25Q606.99-13.65 606.54-13.23 606.09-12.8 605.49-12.8L605.49-12.8 585.44-12.8 584.84-15.5 604.54-15.5 603.89-14.9 603.89-15.9Q603.64-18.25 602.34-19.9 601.04-21.55 599.22-22.4 597.39-23.25 595.39-23.25L595.39-23.25Q593.89-23.25 592.32-22.65 590.74-22.05 589.47-20.78 588.19-19.5 587.39-17.53 586.59-15.55 586.59-12.85L586.59-12.85Q586.59-9.9 587.79-7.5 588.99-5.1 591.24-3.7 593.49-2.3 596.69-2.3L596.69-2.3Q598.39-2.3 599.79-2.8 601.19-3.3 602.27-4.13 603.34-4.95 604.04-5.85L604.04-5.85Q604.59-6.3 605.09-6.3L605.09-6.3Q605.64-6.3 606.02-5.9 606.39-5.5 606.39-5L606.39-5Q606.39-4.4 605.89-3.95L605.89-3.95Q604.39-2.15 601.99-0.83 599.59 0.5 596.74 0.5Z" opacity="1" transform="matrix(1,0,0,1,0,0)" fill="#ffffff" class="slogan-text-1" data-fill-palette-color="secondary" id="text-1"></path></svg></g></svg></g></svg></g></svg></g></svg></g><defs></defs></svg><rect width="395.52" height="79.48925844666078" fill="none" stroke="none" visibility="hidden"></rect></g></svg></g></svg>